<svg width="104" height="40" viewBox="0 0 104 40" fill="none" xmlns="http://www.w3.org/2000/svg">
<path d="M51.3766 10.4262H52.3144V13.7514H50.5899V12.075H44.8395V3.32568H46.5639V10.4262H49.6521V3.32568H51.3766V10.4262Z" fill="#04061E"/>
<path d="M55.1862 10.4262H58.8721V12.075H53.4583V3.32568H58.8069V4.97456H55.1862V6.83642H58.4977V8.46125H55.1862V10.4262Z" fill="#04061E"/>
<path d="M65.0623 3.32568H66.7868V12.075H65.0623V8.45095H61.8126V12.075H60.0882V3.32568H61.8126V6.80207H65.0623V3.32568Z" fill="#04061E"/>
<path d="M74.1861 3.32568V4.97456H71.8227V12.075H70.0982V4.97456H67.7486V3.32568H74.1861Z" fill="#04061E"/>
<path d="M78.4182 3.32568C79.253 3.32568 79.964 3.60737 80.548 4.17417C81.1251 4.74097 81.4137 5.43831 81.4137 6.26275C81.4137 7.09749 81.1251 7.7914 80.548 8.35133C79.964 8.91814 79.253 9.19981 78.4182 9.19981H76.8758V12.075H75.1514V3.32568H78.4182ZM78.4113 7.58873C78.5934 7.58873 78.7652 7.55437 78.9232 7.4891C79.0812 7.42383 79.2152 7.32765 79.3285 7.20742C79.4419 7.08719 79.5278 6.94634 79.5896 6.78833C79.6514 6.63031 79.6824 6.45512 79.6824 6.26275C79.6824 5.87801 79.5621 5.56198 79.3251 5.31121C79.0881 5.06044 78.7823 4.93678 78.4079 4.93678H76.869V7.58529H78.4113V7.58873Z" fill="#04061E"/>
<path d="M48.1063 15.8262C48.9411 15.8262 49.6522 16.1078 50.2361 16.6746C50.8132 17.2415 51.1018 17.9388 51.1018 18.7632C51.1018 19.598 50.8132 20.2919 50.2361 20.8518C49.6522 21.4186 48.9411 21.7003 48.1063 21.7003H46.5639V24.5755H44.8395V15.8262H48.1063ZM48.0994 20.0858C48.2815 20.0858 48.4533 20.0514 48.6113 19.9862C48.7693 19.9209 48.9033 19.8247 49.0166 19.7045C49.13 19.5842 49.2159 19.4434 49.2777 19.2854C49.3395 19.1273 49.3705 18.9522 49.3705 18.7598C49.3705 18.3751 49.2502 18.059 49.0132 17.8082C48.7762 17.5575 48.4704 17.4338 48.096 17.4338H46.5571V20.0823H48.0994V20.0858Z" fill="#04061E"/>
<path d="M56.9519 24.5755L56.4263 23.0022H52.9396L52.414 24.5755H50.5522L53.6163 15.8262H55.753L58.8275 24.5755H56.9519ZM53.4892 21.3877H55.8904L54.6916 17.8117L53.4892 21.3877Z" fill="#04061E"/>
<path d="M64.3169 20.0515C65.1551 20.4844 65.5742 21.1748 65.5742 22.1264C65.5742 22.9027 65.2753 23.5348 64.681 24.026C64.0936 24.5104 63.3276 24.7509 62.3863 24.7509C60.7615 24.7509 59.6726 24.0638 59.1229 22.6898L60.6103 21.8516C60.868 22.7001 61.4588 23.126 62.3863 23.126C62.8604 23.126 63.2245 23.0298 63.4753 22.834C63.726 22.6382 63.8497 22.3668 63.8497 22.0165C63.8497 21.6661 63.726 21.3947 63.4822 21.1989C63.2348 21.0031 62.8844 20.9069 62.4241 20.9069H61.3352V19.368H62.1596C62.5924 19.368 62.9291 19.2752 63.173 19.0863C63.4134 18.8973 63.5371 18.6431 63.5371 18.3168C63.5371 17.9905 63.4341 17.7362 63.2245 17.5473C63.015 17.3584 62.7092 17.2656 62.3005 17.2656C61.5516 17.2656 61.026 17.6332 60.7271 18.3649L59.2638 17.5164C59.8546 16.2763 60.868 15.6545 62.3005 15.6545C63.1592 15.6545 63.8703 15.8881 64.4302 16.3553C64.9833 16.8225 65.2616 17.4374 65.2616 18.2069C65.2616 18.9832 64.949 19.6015 64.3169 20.0515Z" fill="#04061E"/>
<path d="M71.9739 20.0377C72.7502 20.4808 73.135 21.1472 73.135 22.0369C73.135 22.7789 72.8705 23.387 72.3449 23.861C71.8193 24.3351 71.17 24.5721 70.404 24.5721H66.6837V15.8262H70.1326C70.8746 15.8262 71.5033 16.0598 72.0185 16.5269C72.5338 16.9941 72.7949 17.5815 72.7949 18.2892C72.8018 19.0209 72.5235 19.6048 71.9739 20.0377ZM68.4116 17.4373V19.3609H70.1361C70.404 19.3609 70.6239 19.2682 70.8059 19.0861C70.9845 18.9041 71.0739 18.6739 71.0739 18.3991C71.0739 18.1243 70.988 17.8941 70.8128 17.7121C70.6376 17.53 70.4143 17.4373 70.1395 17.4373H68.4116ZM70.4006 22.961C70.6926 22.961 70.933 22.8614 71.1254 22.6656C71.3178 22.4698 71.4139 22.2224 71.4139 21.9202C71.4139 21.6282 71.3178 21.3843 71.1254 21.1885C70.933 20.9927 70.6926 20.8965 70.4006 20.8965H68.4116V22.9576H70.4006V22.961Z" fill="#04061E"/>
<path d="M79.3114 24.5755V19.2373L75.5602 24.5755H74.2514V15.8262H75.9759V21.1747L79.727 15.8262H81.0393V24.5755H79.3114Z" fill="#04061E"/>
<path d="M88.4489 15.8262V17.475H86.0855V24.5755H84.361V17.475H82.0114V15.8262H88.4489Z" fill="#04061E"/>
<path d="M94.4742 24.5755V19.2373L90.723 24.5755H89.4108V15.8262H91.1352V21.1747L94.8864 15.8262H96.1987V24.5755H94.4742Z" fill="#04061E"/>
<path d="M104 15.8262V24.5755H102.275V21.5389H101.286L99.2731 24.5755H97.3356L99.4723 21.3499C99.1975 21.2503 98.9433 21.1129 98.7097 20.9377C98.4761 20.7625 98.2769 20.5598 98.1085 20.3262C97.9402 20.0926 97.8131 19.8419 97.7204 19.5705C97.6276 19.2991 97.583 19.0174 97.583 18.7255C97.583 17.9251 97.8647 17.2415 98.4315 16.6746C98.9983 16.1078 99.6853 15.8262 100.493 15.8262H104ZM102.275 20.0239V17.4373H100.499C100.331 17.4373 100.18 17.4716 100.036 17.5369C99.8949 17.6021 99.7677 17.6949 99.6612 17.8117C99.5548 17.9285 99.4689 18.0659 99.4036 18.2239C99.3418 18.3819 99.3109 18.5503 99.3109 18.7255C99.3109 18.9006 99.3418 19.0655 99.4036 19.227C99.4654 19.385 99.5513 19.5258 99.6612 19.6461C99.7712 19.7663 99.8949 19.8591 100.036 19.9278C100.177 19.993 100.331 20.0274 100.499 20.0274H102.275V20.0239Z" fill="#04061E"/>
<path d="M50.4628 37.0763L49.9372 35.503H46.4506L45.925 37.0763H44.0631L47.1273 28.3269H49.264L52.3384 37.0763H50.4628ZM47.0002 33.8884H49.4014L48.2025 30.3124L47.0002 33.8884Z" fill="#04061E"/>
<path d="M57.0378 37.2479C55.7221 37.2479 54.6332 36.8117 53.771 35.9357C52.9053 35.07 52.4759 33.9914 52.4759 32.6998C52.4759 31.4013 52.9087 30.3192 53.771 29.4638C54.6297 28.5879 55.7187 28.1516 57.0378 28.1516C57.4363 28.1516 57.8245 28.1997 58.1955 28.2959C58.5664 28.3921 58.9134 28.5295 59.2397 28.7081C59.5661 28.8867 59.8581 29.1031 60.1226 29.3573C60.3836 29.6115 60.6104 29.8967 60.8027 30.2127L59.3153 31.0749C59.0989 30.6764 58.7897 30.3673 58.3913 30.1509C57.9928 29.9344 57.5428 29.8245 57.0412 29.8245C56.1928 29.8245 55.5023 30.0925 54.9801 30.6249C54.4649 31.1677 54.2038 31.8582 54.2038 32.6998C54.2038 33.5345 54.4614 34.2215 54.9801 34.7609C55.5057 35.2933 56.1928 35.5612 57.0412 35.5612C57.5428 35.5612 57.9928 35.4513 58.3981 35.2315C58.8035 35.0116 59.1092 34.7093 59.3153 34.3246L60.8027 35.1868C60.6104 35.5029 60.3836 35.788 60.1226 36.0422C59.8615 36.2964 59.5661 36.5128 59.2397 36.6914C58.9134 36.8701 58.5664 37.0075 58.1955 37.1037C57.8245 37.2033 57.4363 37.2479 57.0378 37.2479Z" fill="#04061E"/>
<path d="M67.6008 28.3235V29.9724H65.2374V37.0728H63.513V29.9724H61.1633V28.3235H67.6008Z" fill="#04061E"/>
<path d="M73.5506 37.0763L73.025 35.503H69.5383L69.0127 37.0763H67.1509L70.215 28.3269H72.3517L75.4262 37.0763H73.5506ZM70.0879 33.8884H72.4891L71.2902 30.3124L70.0879 33.8884Z" fill="#04061E"/>
<path d="M81.2488 28.3235H82.9732V37.0728H81.2488V33.4487H77.9991V37.0728H76.2747V28.3235H77.9991V31.7999H81.2488V28.3235Z" fill="#04061E"/>
<path d="M84.5878 37.0763V28.3269H86.3122V31.2021H87.8546C88.6894 31.2021 89.4005 31.4838 89.9844 32.0506C90.5616 32.6174 90.8501 33.3148 90.8501 34.1392C90.8501 34.974 90.5616 35.6679 89.9844 36.2278C89.4005 36.7946 88.6894 37.0763 87.8546 37.0763H84.5878ZM86.3122 35.4618H87.8512C88.2256 35.4618 88.5314 35.3381 88.7684 35.0873C89.0054 34.8365 89.1257 34.5205 89.1257 34.1358C89.1257 33.751 89.0054 33.435 88.7684 33.1842C88.5314 32.9335 88.2256 32.8098 87.8512 32.8098H86.3122V35.4618ZM91.6367 37.0763V28.3269H93.3612V37.0763H91.6367Z" fill="#04061E"/>
<path d="M7.01498 29.6287C7.93217 30.515 8.82187 30.8482 9.53982 30.934C10.433 31.0508 11.0375 30.7932 11.0375 30.7932C10.2337 30.3329 9.25813 29.4981 8.31346 28.4573C8.31346 28.4573 8.31347 28.4573 8.3066 28.4573C5.89168 25.8156 3.65194 21.8927 4.77181 19.701C5.55846 20.8827 6.46191 21.7278 7.30696 22.3427C8.93866 23.5175 10.3574 23.7889 10.3574 23.7889C10.3574 23.7889 8.79095 22.1366 7.1352 19.8969C7.1352 19.8969 7.1352 19.89 7.13176 19.89C4.87829 16.8052 2.47712 12.5937 3.78591 9.99327C13.8853 24.5859 31.1642 25.4 34.2284 25.9427C35.6883 26.2004 37.0899 27.7393 38.5051 29.3332V8.77034C38.5051 4.47982 35.0253 1 30.7348 1H8.77034C4.47982 1 1 4.47982 1 8.77034V30.7348C1 35.0253 4.47982 38.5051 8.77034 38.5051H15.8914C12.5868 37.2101 8.37874 34.6303 7.01498 29.6287Z" stroke="#04061E" stroke-width="2" stroke-miterlimit="10"/>
<path d="M26.9217 18.4954C30.3557 18.4954 33.1394 15.7116 33.1394 12.2777C33.1394 8.8438 30.3557 6.06006 26.9217 6.06006C23.4878 6.06006 20.7041 8.8438 20.7041 12.2777C20.7041 15.7116 23.4878 18.4954 26.9217 18.4954Z" stroke="#FFD923" stroke-width="3" stroke-miterlimit="10"/>
</svg>
