<svg width="1092" height="595" viewBox="0 0 1092 595" fill="none" xmlns="http://www.w3.org/2000/svg">
<g opacity="0.4">
<path d="M677.922 594.05H570.122L516.222 500.106L570.122 406.161H677.922L731.822 500.106L677.922 594.05ZM571.431 591.797H676.643L729.233 500.106L676.643 408.415H571.431L518.84 500.106L571.431 591.797Z" fill="white"/>
<path d="M677.922 390.997H570.122L516.222 297.052L570.122 203.108H677.922L731.822 297.052L677.922 390.997ZM571.431 388.743H676.643L729.233 297.052L676.643 205.361H571.431L518.84 297.052L571.431 388.743Z" fill="white"/>
<path d="M848.848 492.523H741.049L687.149 398.579L741.049 304.635H848.848L902.749 398.579L848.848 492.523ZM742.358 490.27H847.57L900.16 398.579L847.57 306.888H742.358L689.767 398.579L742.358 490.27Z" fill="white"/>
<path d="M1023 390.997H915.203L861.303 297.052L915.203 203.108H1023L1076.9 297.052L1023 390.997ZM916.513 388.743H1021.72L1074.31 297.052L1021.72 205.361H916.513L863.922 297.052L916.513 388.743Z" fill="white"/>
<path d="M848.848 289.5H741.049L687.149 195.555L741.049 101.611H848.848L902.749 195.555L848.848 289.5ZM742.358 287.246H847.57L900.16 195.555L847.57 103.865H742.358L689.767 195.555L742.358 287.246Z" fill="white"/>
<path d="M335.733 390.997H227.933L174.033 297.052L227.933 203.108H335.733L389.633 297.052L335.733 390.997ZM229.242 388.743H334.454L387.044 297.052L334.454 205.361H229.242L176.652 297.052L229.242 388.743Z" fill="white"/>
<path d="M335.733 187.973H227.933L174.033 94.0288L227.933 0.0844727H335.733L389.633 94.0288L335.733 187.973ZM229.242 185.72H334.454L387.044 94.0288L334.454 2.33791H229.242L176.652 94.0288L229.242 185.72Z" fill="white"/>
<path d="M506.69 492.523H398.89L344.99 398.579L398.89 304.635H506.69L560.59 398.579L506.69 492.523ZM400.169 490.27H505.381L557.971 398.579L505.381 306.888H400.169L347.579 398.579L400.169 490.27Z" fill="white"/>
<path d="M506.69 289.5H398.89L344.99 195.555L398.89 101.611H506.69L560.59 195.555L506.69 289.5ZM400.169 287.246H505.381L557.971 195.555L505.381 103.865H400.169L347.579 195.555L400.169 287.246Z" fill="white"/>
<path d="M1023 594.05H915.203L861.303 500.106L915.203 406.161H1023L1076.9 500.106L1023 594.05ZM916.513 591.797H1021.72L1074.31 500.106L1021.72 408.415H916.513L863.922 500.106L916.513 591.797Z" fill="white"/>
<path d="M1198.32 289.5H1090.52L1036.62 195.555L1090.52 101.611H1198.32L1252.22 195.555L1198.32 289.5ZM1091.82 287.246H1197.04L1249.63 195.555L1197.04 103.865H1091.82L1039.23 195.555L1091.82 287.246Z" fill="white"/>
<path d="M161.7 492.523H53.9L0 398.579L53.9 304.635H161.7L215.6 398.579L161.7 492.523ZM55.2094 490.27H160.421L213.011 398.579L160.421 306.888H55.2094L2.61887 398.579L55.2094 490.27Z" fill="white"/>
<path d="M677.922 187.973H570.122L516.222 94.0288L570.122 0.0844727H677.922L731.822 94.0288L677.922 187.973ZM571.431 185.72H676.643L729.233 94.0288L676.643 2.33791H571.431L518.84 94.0288L571.431 185.72Z" fill="white"/>
<path d="M674.968 289.226H640.496V254.511H607.578V289.226H573.076V322.327H607.578V357.042H640.496V322.327H674.968V289.226Z" fill="white"/>
<path d="M969.103 563.903C958.445 563.903 952.081 535.186 952.081 507.445C952.081 479.703 958.445 450.987 969.103 450.987C979.762 450.987 986.126 479.703 986.126 507.445C986.126 535.186 979.762 563.903 969.103 563.903ZM969.103 453.24C961.978 453.24 954.334 475.013 954.334 507.445C954.334 539.876 961.978 561.649 969.103 561.649C976.229 561.649 983.872 539.876 983.872 507.445C983.872 475.013 976.26 453.24 969.103 453.24Z" fill="white"/>
<path d="M969.103 563.903C958.445 563.903 952.081 535.186 952.081 507.445C952.081 479.703 958.445 450.987 969.103 450.987C979.762 450.987 986.126 479.703 986.126 507.445C986.126 535.186 979.762 563.903 969.103 563.903ZM969.103 453.24C961.978 453.24 954.334 475.013 954.334 507.445C954.334 539.876 961.978 561.649 969.103 561.649C976.229 561.649 983.872 539.876 983.872 507.445C983.872 475.013 976.26 453.24 969.103 453.24Z" fill="white"/>
<path d="M931.038 543.226C927.567 543.226 924.917 542.282 923.456 540.211C917.274 531.472 936.794 509.607 959.237 493.467C971.265 484.819 983.568 478.059 993.861 474.405C1004.73 470.568 1011.95 470.629 1014.78 474.618C1017.61 478.607 1015.33 485.489 1008.17 494.594C1001.41 503.212 991.029 512.713 979 521.361C961.886 533.664 942.184 543.226 931.038 543.226ZM1007.17 473.856C1003.97 473.856 999.677 474.77 994.592 476.567C984.482 480.13 972.392 486.799 960.516 495.325C934.297 514.144 921.111 533.055 925.252 538.902C929.394 544.749 951.441 538.354 977.691 519.534C989.567 511.008 999.768 501.659 1006.41 493.224C1012.68 485.245 1015.09 478.942 1012.95 475.958C1011.95 474.557 1009.97 473.856 1007.17 473.856Z" fill="white"/>
<path d="M931.038 543.226C927.567 543.226 924.917 542.282 923.456 540.211C917.274 531.472 936.794 509.607 959.237 493.467C971.265 484.819 983.568 478.059 993.861 474.405C1004.73 470.568 1011.95 470.629 1014.78 474.618C1017.61 478.607 1015.33 485.489 1008.17 494.594C1001.41 503.212 991.029 512.713 979 521.361C961.886 533.664 942.184 543.226 931.038 543.226ZM1007.17 473.856C1003.97 473.856 999.677 474.77 994.592 476.567C984.482 480.13 972.392 486.799 960.516 495.325C934.297 514.144 921.111 533.055 925.252 538.902C929.394 544.749 951.441 538.354 977.691 519.534C989.567 511.008 999.768 501.659 1006.41 493.224C1012.68 485.245 1015.09 478.942 1012.95 475.958C1011.95 474.557 1009.97 473.856 1007.17 473.856Z" fill="white"/>
<path d="M1007.14 543.256C1003.64 543.256 999.19 542.312 993.861 540.424C983.568 536.77 971.265 530.01 959.237 521.361C936.794 505.252 917.274 483.357 923.456 474.618C929.638 465.878 956.557 477.358 979 493.467C991.029 502.116 1001.38 511.617 1008.17 520.235C1015.33 529.309 1017.61 536.222 1014.78 540.211C1013.35 542.251 1010.76 543.256 1007.14 543.256ZM931.099 473.856C928.267 473.856 926.257 474.557 925.252 475.957C921.111 481.804 934.297 500.715 960.516 519.534C972.392 528.061 984.482 534.73 994.592 538.293C1004.12 541.673 1010.82 541.886 1012.95 538.902C1015.09 535.917 1012.68 529.614 1006.41 521.635C999.768 513.2 989.567 503.851 977.691 495.325C957.714 480.982 940.174 473.856 931.099 473.856Z" fill="white"/>
<path d="M1007.14 543.256C1003.64 543.256 999.19 542.312 993.861 540.424C983.568 536.77 971.265 530.01 959.237 521.361C936.794 505.252 917.274 483.357 923.456 474.618C929.638 465.878 956.557 477.358 979 493.467C991.029 502.116 1001.38 511.617 1008.17 520.235C1015.33 529.309 1017.61 536.222 1014.78 540.211C1013.35 542.251 1010.76 543.256 1007.14 543.256ZM931.099 473.856C928.267 473.856 926.257 474.557 925.252 475.957C921.111 481.804 934.297 500.715 960.516 519.534C972.392 528.061 984.482 534.73 994.592 538.293C1004.12 541.673 1010.82 541.886 1012.95 538.902C1015.09 535.917 1012.68 529.614 1006.41 521.635C999.768 513.2 989.567 503.851 977.691 495.325C957.714 480.982 940.174 473.856 931.099 473.856Z" fill="white"/>
<path d="M318.284 64.8864C318.893 63.7902 318.741 62.3894 317.797 61.5063C316.7 60.4709 314.965 60.5013 313.929 61.6281C312.894 62.7243 312.924 64.4905 314.051 65.5259C314.995 66.409 316.396 66.5004 317.431 65.8304L331.043 78.803V93.024L320.811 112.544L294.166 124.146V157.217C292.948 157.521 292.065 158.587 292.065 159.897C292.065 161.419 293.283 162.668 294.805 162.668C296.328 162.668 297.546 161.419 297.546 159.897C297.546 158.587 296.663 157.521 295.445 157.217V124.999L321.725 113.549L332.322 93.3286V78.2244L318.284 64.8864Z" fill="white"/>
<path d="M317.523 61.2631C317.492 61.2324 317.462 61.2017 317.462 61.2017C317.492 61.2017 317.492 61.2324 317.523 61.2631Z" fill="white"/>
<path d="M317.675 61.3845C317.644 61.3541 317.584 61.2931 317.553 61.2627C317.584 61.3236 317.614 61.3541 317.675 61.3845Z" fill="white"/>
<path d="M317.736 61.4457C317.706 61.415 317.706 61.415 317.675 61.3843C317.675 61.415 317.706 61.4457 317.736 61.4457Z" fill="white"/>
<path d="M317.949 61.6582C318.01 61.6889 318.041 61.7504 318.041 61.7504C318.01 61.7197 317.98 61.6889 317.949 61.6582Z" fill="white"/>
<path d="M317.736 61.4451C317.767 61.4758 317.767 61.4758 317.797 61.5065L317.828 61.5373C317.797 61.5066 317.767 61.4758 317.736 61.4451Z" fill="white"/>
<path d="M317.827 61.5366C317.858 61.5671 317.918 61.628 317.949 61.6584C317.918 61.628 317.858 61.5975 317.827 61.5366Z" fill="white"/>
<path d="M302.449 128.227C300.926 128.227 299.708 129.475 299.708 130.998C299.708 132.307 300.591 133.373 301.809 133.677V145.919C300.591 146.224 299.708 147.289 299.708 148.599C299.708 150.122 300.926 151.37 302.449 151.37C303.972 151.37 305.19 150.122 305.19 148.599C305.19 147.289 304.307 146.224 303.088 145.919V133.677C304.307 133.373 305.19 132.307 305.19 130.998C305.19 129.445 303.972 128.227 302.449 128.227Z" fill="white"/>
<path d="M328.424 65.13C328.455 65.3736 328.455 65.4954 328.455 65.5258C328.424 65.3736 328.333 64.0337 328.424 65.13Z" fill="white"/>
<path d="M292.278 50.0867C293.526 50.0867 294.562 49.2036 294.836 48.0464H311.28L324.374 55.3548L324.953 62.7851C323.826 63.1505 323.034 64.2773 323.126 65.5258C323.248 66.9875 324.527 68.0838 325.958 67.962C327.42 67.8402 328.516 66.5612 328.394 65.0995C328.303 63.851 327.359 62.8765 326.171 62.6938L325.531 54.5935L311.584 46.7978H294.836C294.562 45.6407 293.526 44.7576 292.278 44.7576C290.816 44.7576 289.629 45.9452 289.629 47.4069C289.629 48.899 290.816 50.0867 292.278 50.0867Z" fill="white"/>
<path d="M231.04 59.8005C230.977 59.8633 231.009 59.8319 231.04 59.8005V59.8005Z" fill="white"/>
<path d="M231.069 59.7706C231.13 59.7401 231.222 59.6792 231.344 59.5574C231.496 59.466 231.587 59.3747 231.648 59.3442C231.526 59.466 231.222 59.6792 231.069 59.7706Z" fill="white"/>
<path d="M231.679 59.376C231.741 59.3132 231.741 59.3132 231.679 59.376V59.376Z" fill="white"/>
<path d="M283.264 139.554C283.264 139.585 283.264 139.616 283.264 139.647C283.295 139.647 283.295 139.585 283.264 139.554Z" fill="white"/>
<path d="M286.614 136.662L286.188 108.219L269.926 107.945L257.806 96.7999H227.294L219.589 91.8362L219.467 72.2251L231.13 63.9118C232.074 64.734 233.475 64.8253 234.511 64.0945C235.759 63.2114 236.033 61.4756 235.15 60.2575C234.267 59.009 232.562 58.7045 231.313 59.5876C230.247 60.3489 229.882 61.7192 230.339 62.8764L218.127 71.5856L218.249 92.5671L226.867 98.1093H257.258L269.348 109.255L284.848 109.498L285.244 136.692C284.056 136.996 283.173 138.093 283.173 139.402C283.203 140.925 284.452 142.143 285.944 142.112C287.467 142.082 288.685 140.833 288.654 139.311C288.746 138.032 287.832 136.936 286.614 136.662Z" fill="white"/>
<path d="M234.176 80.6907C232.653 80.6907 231.435 81.9392 231.465 83.4618C231.465 84.9844 232.714 86.2025 234.237 86.2025C233.475 86.2025 233.871 86.2025 234.237 86.2025C234.48 86.2025 234.602 86.2025 234.632 86.2025C234.571 86.2025 234.389 86.2025 234.237 86.2025C235.516 86.2025 236.612 85.2889 236.886 84.0709L263.653 83.8577L272.728 94.0591C272.027 95.0945 272.088 96.4953 272.941 97.4697C272.88 97.4088 272.85 97.3479 272.789 97.3175C272.819 97.3479 272.88 97.4088 272.941 97.4697C272.971 97.5002 272.971 97.5306 273.002 97.5306C272.971 97.5002 272.971 97.4697 272.941 97.4697C273.946 98.5964 275.682 98.6878 276.808 97.6829C277.935 96.678 278.026 94.9118 277.021 93.785C276.169 92.8106 274.768 92.5974 273.672 93.2064L264.201 82.5787L236.825 82.8223C236.551 81.5738 235.455 80.6602 234.176 80.6907Z" fill="white"/>
<path d="M273.063 97.6223C273.154 97.7137 273.185 97.7746 273.215 97.7746C273.215 97.7441 273.154 97.6832 273.063 97.6223Z" fill="white"/>
<path d="M272.728 97.2264C272.606 97.0741 272.636 97.1046 272.728 97.2264V97.2264Z" fill="white"/>
<path d="M292.857 103.317C292.857 102.007 291.973 100.941 290.755 100.637V89.2173L276.9 69.9108H258.629C258.324 68.6927 257.258 67.8096 255.949 67.8096C254.426 67.8096 253.208 69.0581 253.208 70.5807C253.208 72.1033 254.426 73.3518 255.949 73.3518C257.228 73.3518 258.324 72.4383 258.629 71.2506H276.23L289.446 89.6741V100.667C288.228 100.972 287.345 102.038 287.345 103.347C287.345 104.87 288.563 106.118 290.085 106.118C291.608 106.118 292.857 104.839 292.857 103.317Z" fill="white"/>
<path d="M242.611 69.0585C243.555 68.1754 243.768 66.7746 243.189 65.6784L254.182 55.6901L278.97 56.086L296.633 79.9299C295.841 80.8739 295.78 82.3051 296.541 83.3405C296.511 83.2796 296.48 83.2492 296.45 83.1883C296.48 83.2187 296.511 83.2796 296.541 83.3405C296.693 83.5232 296.754 83.6146 296.785 83.6755C296.754 83.6146 296.633 83.4928 296.541 83.3405C297.455 84.5586 299.16 84.8022 300.378 83.9191C301.596 83.0055 301.84 81.2698 300.926 80.0517C300.165 79.0163 298.795 78.6813 297.637 79.1686L279.61 54.807L253.695 54.4111L242.337 64.7343C241.301 64.034 239.901 64.0949 238.957 64.978C237.83 66.0133 237.738 67.7491 238.774 68.8758C239.748 70.0025 241.484 70.0634 242.611 69.0585Z" fill="white"/>
<path d="M242.763 68.9069C242.794 68.8762 242.825 68.8454 242.855 68.8147C242.855 68.8454 242.825 68.8762 242.763 68.9069Z" fill="white"/>
<path d="M242.429 69.2412C242.398 69.2719 242.398 69.2719 242.367 69.3027C242.367 69.2719 242.398 69.2412 242.429 69.2412Z" fill="white"/>
<path d="M242.611 69.0583C242.58 69.0888 242.519 69.1497 242.489 69.1802C242.519 69.1497 242.55 69.1193 242.611 69.0583Z" fill="white"/>
<path d="M242.459 69.1799C242.428 69.2107 242.428 69.2107 242.398 69.2414C242.428 69.2107 242.459 69.2107 242.459 69.1799Z" fill="white"/>
<path d="M242.885 68.8165C242.948 68.7223 242.948 68.7537 242.885 68.8165V68.8165Z" fill="white"/>
<path d="M242.368 69.2712C242.245 69.3942 242.276 69.3634 242.368 69.2712V69.2712Z" fill="white"/>
<path d="M242.672 68.9973C242.642 69.028 242.642 69.028 242.611 69.0588C242.611 69.028 242.642 69.028 242.672 68.9973Z" fill="white"/>
<path d="M296.754 83.6753C296.785 83.7057 296.785 83.7057 296.754 83.6753V83.6753Z" fill="white"/>
<path d="M296.298 83.0666C296.267 83.0359 296.267 83.0359 296.267 83.0051C296.267 83.0359 296.298 83.0666 296.298 83.0666Z" fill="white"/>
<path d="M296.268 83.0367C296.236 82.9739 296.236 83.0053 296.268 83.0367V83.0367Z" fill="white"/>
<path d="M314.203 74.0524L309.788 70.3982C310.336 69.2715 310.062 67.9011 309.057 67.0485C307.9 66.074 306.164 66.2567 305.19 67.4443C304.215 68.632 304.398 70.3677 305.555 71.3422C305.616 71.4031 305.677 71.4335 305.707 71.464C305.646 71.4335 305.585 71.3726 305.555 71.3422C306.56 72.1644 307.961 72.1644 308.935 71.4031L312.863 74.6615L312.711 99.0535L303.637 104.139C302.784 103.225 301.414 102.951 300.287 103.591C300.348 103.56 300.439 103.499 300.5 103.469C300.439 103.499 300.378 103.53 300.287 103.591C300.104 103.682 300.013 103.743 299.952 103.774C300.013 103.743 300.165 103.652 300.287 103.591C298.977 104.322 298.49 106.027 299.221 107.336C299.952 108.676 301.627 109.164 302.967 108.402C304.093 107.763 304.611 106.453 304.276 105.266L314.021 99.8148L314.203 74.0524Z" fill="white"/>
<path d="M305.494 71.2507C305.098 70.9157 305.251 71.0679 305.494 71.2507V71.2507Z" fill="white"/>
<path d="M305.738 71.4641C305.799 71.4946 305.829 71.525 305.86 71.5555C305.829 71.5555 305.799 71.4946 305.738 71.4641Z" fill="white"/>
<path d="M305.556 71.2815C305.525 71.2815 305.525 71.2507 305.494 71.2507C305.494 71.2507 305.525 71.2815 305.556 71.2815Z" fill="white"/>
<path d="M300.014 103.743C299.982 103.743 299.982 103.774 299.982 103.774C299.982 103.774 299.982 103.774 300.014 103.743Z" fill="white"/>
<path d="M300.561 103.439C300.592 103.408 300.622 103.408 300.653 103.378C300.622 103.408 300.592 103.439 300.561 103.439Z" fill="white"/>
<path d="M300.652 103.409L300.684 103.378C300.684 103.378 300.652 103.378 300.652 103.409Z" fill="white"/>
<path d="M300.683 103.379C300.683 103.379 300.714 103.379 300.714 103.347C300.714 103.379 300.714 103.379 300.683 103.379Z" fill="white"/>
<path d="M248.671 52.6142C249.767 51.9442 250.224 50.6043 249.858 49.4167L258.507 44.1181L273.367 44.5749L280.706 48.5945C280.402 49.8126 280.919 51.122 282.046 51.7311C283.386 52.4619 285.061 51.9747 285.761 50.6348C286.492 49.2949 285.974 47.6201 284.665 46.8892C283.538 46.2802 282.137 46.5542 281.315 47.4678L273.702 43.3263L258.172 42.8391L249.188 48.3205C248.305 47.4373 246.935 47.2242 245.808 47.8941C244.529 48.6859 244.103 50.3912 244.895 51.7006C245.687 52.9796 247.392 53.4059 248.671 52.6142Z" fill="white"/>
<path d="M249.036 52.4009C249.006 52.4313 248.884 52.4922 248.671 52.614C248.458 52.7358 248.336 52.8272 248.305 52.8272C248.397 52.7968 248.914 52.4618 249.036 52.4009Z" fill="white"/>
<path d="M282.32 51.8833C282.351 51.8833 282.351 51.914 282.382 51.914C282.351 51.914 282.351 51.914 282.32 51.8833Z" fill="white"/>
<path d="M282.381 51.9138C282.381 51.9138 282.412 51.9138 282.412 51.9452C282.381 51.9452 282.381 51.9138 282.381 51.9138Z" fill="white"/>
<path d="M281.864 51.6408L281.833 51.6094C281.833 51.6408 281.864 51.6408 281.864 51.6408Z" fill="white"/>
<path d="M281.833 51.6401C281.803 51.6401 281.803 51.6094 281.772 51.6094C281.772 51.6094 281.803 51.6094 281.833 51.6401Z" fill="white"/>
<path d="M281.773 51.5793C281.742 51.5485 281.711 51.5486 281.681 51.5178C281.681 51.5486 281.711 51.5793 281.773 51.5793Z" fill="white"/>
<path d="M322.608 97.0132C324.131 97.0132 325.349 95.7647 325.349 94.2421C325.349 92.9327 324.466 91.8669 323.248 91.5624V83.0053C324.466 82.7008 325.349 81.635 325.349 80.3256C325.349 78.803 324.131 77.5544 322.608 77.5544C321.085 77.5544 319.867 78.803 319.867 80.3256C319.867 81.635 320.751 82.7008 321.969 83.0053V91.5624C320.751 91.8669 319.867 92.9327 319.867 94.2421C319.867 95.7647 321.085 97.0132 322.608 97.0132Z" fill="white"/>
<path d="M798.725 171.864C798.298 171.864 797.963 171.529 797.963 171.103V127.222C797.963 126.795 798.298 126.46 798.725 126.46C799.151 126.46 799.486 126.795 799.486 127.222V171.103C799.486 171.499 799.151 171.864 798.725 171.864Z" fill="white"/>
<path d="M782.311 187.425C782.098 187.425 781.885 187.333 781.763 187.181C781.489 186.877 781.519 186.389 781.824 186.115L798.085 171.224C798.39 170.95 798.846 170.95 799.121 171.255L813.89 186.146C814.194 186.45 814.194 186.938 813.89 187.212C813.585 187.516 813.098 187.516 812.824 187.212L798.542 172.838L782.798 187.212C782.676 187.364 782.494 187.425 782.311 187.425Z" fill="white"/>
<path d="M836.79 249.273C834.627 249.273 832.13 248.969 829.329 248.36C824.822 247.385 820.376 245.771 817.97 244.675C817.605 244.523 817.209 244.34 816.813 244.157C811.849 241.965 805.059 238.98 804.541 232.707C804.358 230.393 804.419 228.018 804.48 225.734C804.51 224.607 804.541 223.45 804.541 222.323V169.915C804.541 166.84 806.459 163.52 809.017 162.211C810.662 161.358 812.306 161.48 813.707 162.485C814.895 163.338 816.021 164.16 817.148 164.982C826.984 172.108 834.749 177.711 840.231 184.228C846.169 191.293 848.818 198.814 848.818 208.528C848.818 212.061 848.818 215.319 848.818 218.578C848.818 221.836 848.818 225.125 848.818 228.627C848.818 229.906 848.818 231.154 848.818 232.403C848.818 234.93 848.818 237.306 848.818 239.833C848.788 243.7 845.743 246.776 842.728 248.146C841.114 248.908 839.134 249.273 836.79 249.273Z" fill="white"/>
<path d="M760.69 249.273C758.315 249.273 756.335 248.908 754.752 248.207C751.737 246.867 748.692 243.761 748.662 239.894C748.662 237.366 748.662 234.991 748.662 232.464C748.662 231.215 748.662 229.966 748.662 228.688C748.662 225.155 748.662 221.897 748.662 218.638C748.662 215.38 748.662 212.091 748.662 208.589C748.662 198.845 751.311 191.353 757.249 184.289C762.73 177.772 770.496 172.138 780.332 165.043C781.458 164.221 782.615 163.399 783.773 162.546C785.173 161.541 786.848 161.45 788.462 162.272C791.02 163.581 792.939 166.9 792.939 169.976V222.384C792.939 223.511 792.969 224.668 793 225.795C793.061 228.109 793.121 230.484 792.939 232.768C792.452 239.011 785.63 242.025 780.667 244.218C780.271 244.401 779.875 244.553 779.509 244.736C777.073 245.832 772.658 247.446 768.151 248.42C765.349 248.969 762.852 249.273 760.69 249.273Z" fill="white"/>
<path d="M953.786 259.749V351.135C953.786 357.164 959.176 362.037 965.814 362.037C972.453 362.037 977.843 357.164 977.843 351.135V259.749H953.786ZM959.115 287.247H971.113C972.088 287.247 972.879 287.977 972.879 288.861C972.879 289.713 972.057 290.475 971.113 290.475H959.115C958.141 290.475 957.349 289.744 957.349 288.861C957.349 287.977 958.171 287.247 959.115 287.247ZM972.149 305.061H958.445C956.161 305.061 956.161 301.864 958.445 301.864H972.149C974.432 301.864 974.432 305.061 972.149 305.061Z" fill="white"/>
<path d="M980.919 259.748H950.68C948.975 259.748 947.635 258.409 947.817 256.856C947.97 255.516 949.218 254.511 950.68 254.511H980.919C982.624 254.511 983.964 255.851 983.781 257.404C983.629 258.713 982.411 259.748 980.919 259.748Z" fill="white"/>
<path d="M610.44 73.0778C611.628 72.4079 612.846 71.7379 614.064 71.0375C614.247 70.9157 614.582 70.6721 615.008 70.3676H613.455C612.815 70.3676 612.237 70.0326 611.902 69.4845C611.567 68.9364 611.567 68.2664 611.841 67.6878L616.896 58.0955L613.303 56.9688L608.918 69.4845C608.826 69.6977 608.704 69.9108 608.552 70.0935L604.167 74.9963C604.319 75.4835 604.472 75.9708 604.624 76.4884C606.573 75.2399 608.491 74.1741 610.44 73.0778Z" fill="white"/>
<path d="M598.229 81.4522C599.356 80.356 600.513 79.412 601.67 78.5289C601.548 78.3766 601.426 78.1939 601.365 77.9807C599.325 71.7076 597.985 65.9522 596.524 59.8618C595.732 56.4816 594.91 53.0101 593.935 49.3254C592.26 49.5995 590.981 49.7822 589.611 49.9649C591.316 55.294 592.412 58.8264 593.752 64.4296C593.966 65.3127 594.392 67.962 595.062 72.3167C595.092 72.5298 595.092 72.743 595.031 72.9562L593.204 81.97C593.174 82.1831 593.082 82.3963 592.961 82.579C591.316 85.2283 588.545 90.4051 587.205 93.5112C587.083 93.7853 587.022 94.0594 586.962 94.3334C588.91 91.1055 592.687 86.7813 598.229 81.4522Z" fill="white"/>
<path d="M619.149 71.7685C617.596 73.017 616.561 73.8087 615.891 74.2046C614.642 74.9355 613.424 75.6054 612.206 76.3058C608.095 78.5897 604.228 80.7518 600.726 84.1015C592.23 92.2931 589.124 97.0436 589.063 98.6575C588.241 116.959 591.134 124.268 597.559 132.886C605.476 143.544 615.586 152.07 626.793 157.613C630.721 159.531 634.893 160.84 639.248 161.45C645.155 162.302 649.601 162.789 652.159 162.85C653.469 161.358 656.483 154.628 658.737 148.751C658.798 147.259 658.889 145.645 658.98 143.94C659.65 131.058 660.564 113.427 657.976 98.8098C657.549 96.5564 649.266 83.0662 638.486 79.4728L646.191 93.8157C646.343 94.0898 646.404 94.3943 646.404 94.6988L646.13 111.447C646.13 111.843 645.978 112.239 645.734 112.544L641.349 118.147L643.115 128.744L647.378 135.017C647.957 135.839 647.744 136.997 646.922 137.545C646.617 137.758 646.252 137.849 645.886 137.849C645.308 137.849 644.729 137.575 644.394 137.057L639.887 130.449C639.735 130.236 639.643 129.993 639.583 129.719L638.304 121.984L629.381 133.434C628.772 134.225 627.615 134.378 626.823 133.738C626.031 133.129 625.91 131.972 626.519 131.18L642.476 110.747L642.719 95.0947L641.318 92.4758L634.345 98.6271L629.899 115.132C629.747 115.741 629.29 116.198 628.711 116.381L621.525 118.695C621.342 118.756 621.159 118.786 620.976 118.786C620.215 118.786 619.484 118.299 619.241 117.507C618.936 116.533 619.454 115.528 620.428 115.223L626.671 113.214L630.995 97.1349C631.087 96.8 631.269 96.465 631.543 96.2518L639.552 89.187L633.827 78.5288C633.614 78.1329 633.553 77.6457 633.675 77.2194L635.959 68.2969C636.081 67.8402 636.355 67.4443 636.751 67.2007C639.613 65.4345 642.597 63.851 645.643 62.4806C651.672 59.7704 656.331 58.1869 660.899 57.3038C660.899 55.9944 660.929 54.7763 660.96 53.5887C660.99 52.5533 661.021 51.5788 661.021 50.5435C657.153 51.4875 647.561 54.4413 638.06 59.1309C630.295 62.9679 623.047 68.6928 619.149 71.7685Z" fill="white"/>
<path d="M60.5081 427.599C58.9855 434.055 65.015 441.029 73.9983 443.191C82.9816 445.322 91.4777 441.82 93.0003 435.334L99.6084 407.257L67.1161 399.522L60.5081 427.599Z" fill="white"/>
<path d="M107.252 374.765C108.774 368.309 102.745 361.336 93.7616 359.174C84.7783 357.042 76.2822 360.544 74.7596 367.03L68.1515 395.107L100.644 402.842L107.252 374.765Z" fill="white"/>
<path d="M145.834 444.043C157.924 440.602 165.263 428.574 163.192 416.393L116.692 429.609C121.229 441.09 133.745 447.485 145.834 444.043Z" fill="white"/>
<path d="M132.618 396.995C120.529 400.436 113.19 412.465 115.261 424.646L161.761 411.429C157.224 399.949 144.708 393.554 132.618 396.995Z" fill="white"/>
<path d="M332.231 256.338L332.14 255.668L331.47 255.729C319.776 256.703 309.818 254.754 301.809 249.943C292.126 244.096 287.284 237.031 287.223 236.97L287.01 236.666L280.645 236.574L280.432 236.849C280.371 236.909 275.194 243.761 265.237 249.121C257.015 253.536 246.966 255.028 235.333 253.475L234.663 253.384L234.541 254.054C233.932 257.343 233.506 272.477 236.094 290.414C240.083 318.003 248.245 331.402 254.365 337.797C262.922 347.42 280.463 357.286 280.615 357.377L280.919 357.53L281.224 357.408C291.669 352.962 300.835 346.78 308.418 339.045C314.843 332.955 323.613 319.921 328.912 292.576C332.414 274.792 332.718 259.657 332.231 256.338ZM290.481 319.008C290.36 319.16 290.146 319.252 289.964 319.252H276.595C276.382 319.252 276.199 319.16 276.078 319.008C275.956 318.856 275.895 318.643 275.925 318.46L279.671 290.505C277.631 289.195 276.473 286.942 276.565 284.475C276.717 280.973 279.549 278.141 283.021 277.989C284.878 277.928 286.644 278.598 287.954 279.877C289.294 281.156 290.025 282.892 290.025 284.78C290.025 287.094 288.837 289.256 286.918 290.505L290.664 318.46C290.664 318.643 290.603 318.856 290.481 319.008Z" fill="white"/>
<path d="M845.316 365.538C844.494 363.772 843.063 362.402 841.662 361.062C838.952 358.474 833.653 352.17 829.359 354.119C828.293 354.576 827.471 355.428 826.558 356.129C824.487 357.682 823.421 357.377 821.594 359.387C821.137 359.905 820.589 360.331 819.95 360.605C818.914 361.032 817.818 360.94 816.752 360.727C815.717 360.483 814.712 360.148 813.646 359.996C812.672 359.874 811.697 359.844 810.723 359.905C809.078 359.996 807.403 360.179 805.79 360.422C803.171 360.849 800.339 361.701 797.689 361.671C795.923 361.641 794.309 360.697 792.573 360.27C787.488 359.022 781.824 362.524 777.043 360.331C776.464 360.057 775.947 359.722 775.338 359.6C774.089 359.326 772.932 359.874 771.714 359.905C770.587 359.935 769.46 359.692 768.334 359.6C766.019 359.387 764.04 358.078 761.817 357.499C759.442 356.89 756.671 357.865 754.417 358.504C751.006 359.448 747.139 360.727 745.16 363.924C744.124 365.569 742.632 369.893 743.576 371.659C743.85 372.177 744.185 372.695 744.337 373.273C744.459 373.852 744.368 374.461 744.216 375.039C743.302 378.389 744.825 381.708 745.16 385.058C745.312 386.703 745.099 388.225 744.49 389.748C743.942 391.118 743.211 392.427 743.028 393.92C742.723 396.325 743.85 398.274 744.703 400.436C745.403 402.142 745.038 404.03 745.221 405.887C745.281 406.618 745.403 407.349 745.647 408.019C745.769 408.323 745.921 408.598 746.012 408.932C746.286 409.907 745.921 410.912 745.647 411.856C743.85 418.22 746.043 424.95 752.803 426.777C756.975 427.904 761.604 426.99 764.71 423.854C766.324 422.24 767.572 420.078 767.725 417.733C767.877 415.236 766.506 413.348 764.71 411.764C763.644 410.82 762.274 409.816 761.512 408.598C760.812 407.471 760.629 406.131 759.838 405.035C759.563 404.669 759.259 404.304 759.076 403.908C758.376 402.294 759.716 400.589 760.264 398.914C761.482 395.107 758.406 390.783 760.02 387.129C760.386 386.307 760.934 385.606 761.36 384.845C762.517 382.774 762.639 380.186 761.695 378.024C761.177 376.867 760.386 375.527 760.995 374.4C761.543 373.425 762.883 373.273 763.979 373.517C766.202 374.035 768.364 374.826 770.648 375.192C771.714 375.374 772.627 375.192 773.724 375.283C776.251 375.496 778.565 376.836 780.971 377.628C784.565 378.785 788.493 378.724 792.147 377.719C792.939 377.506 793.761 377.232 794.614 377.232C796.136 377.262 797.476 378.237 798.877 378.846C801.678 380.034 804.876 379.729 807.86 379.12C810.845 378.511 813.798 377.567 816.844 377.628C818.762 377.658 820.68 378.085 822.568 377.811C824.457 377.537 826.436 376.288 826.68 374.369C827.014 372.025 828.385 370.472 830.943 370.563C831.217 370.563 831.491 370.624 831.674 370.807C831.796 370.959 831.856 371.142 831.887 371.355C832.252 373.7 830.699 375.831 829.207 377.506C828.05 378.815 826.74 380.064 825.888 381.617C825.157 382.927 824.791 384.388 824.578 385.88C823.908 390.905 824.365 400.832 820.833 404.791C818.975 406.862 815.717 407.471 814.377 409.907C812.58 413.196 815.382 416.028 815.717 419.164C816.143 423.184 812.58 420.931 810.51 423.945C810.235 424.341 810.022 424.798 809.748 425.194C808.5 426.899 806.094 427.051 803.993 427.051C803.384 427.051 802.775 427.051 802.227 426.777C801.557 426.442 801.13 425.803 800.643 425.224C797.476 421.57 791.995 422.21 788.615 425.224C786.209 427.356 784.839 430.614 785.052 433.842C785.295 437.557 787.305 440.785 788.401 444.257C789.467 447.576 789.315 450.987 789.132 454.428C788.919 458.265 788.615 461.645 790.685 464.964C791.173 465.725 791.416 466.639 791.355 467.553C791.355 467.705 791.325 467.887 791.386 468.009C792.177 469.775 793.791 467.735 794.096 467.218C794.918 465.847 794.553 463.472 795.649 461.828C796.106 461.127 796.684 460.518 797.05 459.787C798.298 457.29 797.415 454.306 798.298 451.717C799.425 448.368 799.029 444.835 800.004 441.638C801.252 437.557 805.698 439.841 809.048 439.567C812.154 439.293 815.291 438.105 817.27 435.7C818.153 434.634 818.793 433.324 819.98 432.594C820.711 432.137 821.564 431.954 822.294 431.558C824.639 430.279 825.37 427.265 825.857 424.615C826.71 420.017 830.212 418.038 831.43 413.744C832.496 409.937 832.344 405.826 834.232 402.264C836.059 398.822 839.073 396.112 839.896 392.184C840.352 390.052 840.261 387.86 840.566 385.698C840.84 383.749 841.51 381.922 842.301 380.125C843.733 376.958 845.651 373.821 846.108 370.289C846.23 368.675 846.017 367.031 845.316 365.538Z" fill="white"/>
<path d="M517.44 187.425C518.201 197.048 513.877 207.462 507.421 214.405C505.594 216.385 503.675 218.303 501.727 220.161C500.082 221.714 498.377 223.236 496.367 224.241C492.774 226.038 488.937 225.216 485.526 223.328C482.664 221.744 479.497 217.999 478.796 214.71C477.852 210.355 482.45 207.706 482.024 203.625C481.841 201.737 480.319 200.306 479.588 198.54C477.213 192.784 483.79 185.781 480.654 180.421C479.314 178.107 476.573 177.041 474.685 175.122C471.335 171.681 471.396 165.743 474.198 161.845C479.984 153.715 494.936 154.05 502.183 159.988C509.674 166.139 516.678 177.741 517.44 187.425Z" fill="white"/>
<path d="M395.875 187.425C395.114 197.048 399.438 207.462 405.894 214.405C407.721 216.385 409.64 218.303 411.589 220.161C413.233 221.714 414.938 223.236 416.948 224.241C420.542 226.038 424.379 225.216 427.789 223.328C430.652 221.744 433.819 217.999 434.519 214.71C435.463 210.355 430.865 207.706 431.291 203.625C431.474 201.737 432.996 200.306 433.727 198.54C436.103 192.784 429.525 185.781 432.661 180.421C434.001 178.107 436.742 177.041 438.63 175.122C441.98 171.681 441.919 165.743 439.117 161.845C433.331 153.715 418.38 154.05 411.132 159.988C403.641 166.139 396.637 177.741 395.875 187.425Z" fill="white"/>
<path d="M490.063 189.1C483.638 188.339 476.33 190.836 472.066 195.738C467.255 201.281 466.494 208.589 466.585 215.654C466.707 224.759 466.737 233.864 466.707 242.969C466.676 246.624 466.676 250.278 466.554 253.932C466.524 255.668 469.173 255.668 469.204 253.932C469.478 243.396 469.387 232.829 469.295 222.293C469.234 214.649 468.26 206.214 472.584 199.454C474.959 195.738 478.735 193.363 482.938 192.328C485.191 191.78 487.658 191.506 490.033 191.78C491.769 191.993 491.738 189.313 490.063 189.1Z" fill="white"/>
<path d="M430.103 191.871C436.011 191.17 442.589 193.363 446.456 198.022C451.176 203.717 450.963 211.36 450.902 218.303C450.811 226.799 450.78 235.326 450.811 243.822C450.841 247.202 450.872 250.613 450.933 253.993C450.963 255.729 453.643 255.729 453.582 253.993C453.277 242.634 453.399 231.276 453.521 219.948C453.612 212.243 454.008 203.991 449.319 197.383C446.578 193.546 442.528 190.957 437.991 189.831C435.463 189.191 432.692 188.856 430.103 189.161C428.429 189.374 428.398 192.084 430.103 191.871Z" fill="white"/>
<path d="M513.511 448.642C513.542 448.581 513.572 448.52 513.603 448.459C513.633 448.368 513.603 448.307 513.603 448.215C513.603 448.185 513.603 448.185 513.603 448.154C513.572 447.941 513.451 447.759 513.268 447.637C512.659 447.21 512.05 446.754 511.441 446.297C509.157 444.622 506.903 442.886 504.863 440.937C503.706 439.841 502.61 438.684 501.605 437.435C501.148 436.887 500.783 436.278 500.387 435.7C500.356 435.639 500.326 435.608 500.295 435.578C499.899 434.938 499.504 434.268 499.108 433.568C498.834 433.05 498.529 432.563 498.225 432.045C497.95 431.619 497.707 431.193 497.402 430.766C496.276 429.122 494.723 427.599 492.774 426.29C490.825 424.981 488.663 423.945 486.622 422.94C484.887 422.088 483.09 421.235 481.415 420.2C480.989 419.926 480.562 419.651 480.136 419.347C479.223 418.677 478.339 417.885 477.426 416.972C477.03 416.545 476.604 416.119 476.208 415.662C474.594 413.835 472.797 411.947 470.331 410.759C467.864 409.572 465.245 409.45 462.748 409.298L461.621 409.237C460.951 409.206 460.312 409.115 459.764 409.024C458.698 408.476 457.602 407.897 456.536 407.379C456.292 407.257 456.049 407.136 455.805 407.014C455.561 406.892 455.348 406.77 455.135 406.618C455.074 406.557 455.044 406.466 454.983 406.374C454.922 406.253 454.831 406.131 454.77 406.009C454.739 405.948 454.678 405.887 454.617 405.826C454.526 405.735 454.404 405.644 454.282 405.583C454.221 405.552 454.191 405.522 454.13 405.522C454.1 405.522 454.069 405.491 454.008 405.491C453.673 404.913 453.46 404.182 453.308 403.421C453.552 403.207 453.765 402.994 453.917 402.781L453.978 402.72L454.1 402.598C454.191 402.507 454.313 402.385 454.435 402.294C454.587 402.172 454.739 402.02 454.922 401.868C454.983 401.807 455.044 401.746 455.105 401.654C455.257 401.472 455.379 401.258 455.5 401.076C455.683 400.802 455.835 400.558 456.049 400.345C456.292 400.132 456.566 399.919 456.84 399.736C457.358 399.401 457.937 399.157 458.515 398.944C458.667 398.883 458.85 398.822 459.002 398.761C459.581 398.548 460.19 398.366 460.799 398.152C461.53 397.909 462.291 397.665 463.022 397.422C463.479 397.239 463.966 397.056 464.453 396.873C465.336 396.508 466.311 396.112 467.407 395.655C467.864 395.473 468.321 395.259 468.778 395.077C469.112 394.924 469.447 394.803 469.782 394.65C471.335 393.98 472.858 393.25 474.259 392.306C474.655 392.032 475.051 391.788 475.416 391.483C476.025 390.966 476.634 390.387 477.213 389.809C477.578 389.443 477.944 389.078 478.339 388.712C478.522 388.53 478.705 388.377 478.918 388.225C479.497 387.738 480.075 387.342 480.745 387.068C481.171 386.885 481.628 386.763 482.146 386.733C483.273 386.642 484.278 387.281 485.343 387.951C485.435 388.012 485.496 388.042 485.587 388.103C486.622 388.743 487.749 389.382 489.059 389.352C489.241 389.352 489.424 389.321 489.607 389.291C490.124 389.199 490.672 389.291 491.19 389.169C491.403 389.108 491.647 389.047 491.799 388.895C491.951 388.743 492.043 388.469 491.921 388.255C491.799 388.073 491.586 387.981 491.342 388.012C491.129 388.012 490.916 388.103 490.703 388.164C489.942 388.347 489.363 388.012 488.693 387.768C487.962 387.494 487.262 387.311 486.592 386.885C486.44 386.794 486.257 386.702 486.105 386.581C486.013 386.52 485.922 386.459 485.831 386.428C485.252 386.063 484.673 385.728 484.034 385.484C483.577 385.302 483.12 385.18 482.633 385.119C481.689 385.028 480.806 385.21 480.014 385.515C479.74 385.637 479.497 385.758 479.253 385.88C479.375 385.545 479.436 385.21 479.527 384.875C479.588 384.662 479.649 384.479 479.679 384.266C479.832 383.383 479.892 382.5 479.923 381.708C479.953 381.191 479.984 380.673 480.136 380.247C480.197 380.094 480.258 379.973 480.349 379.82C480.593 379.424 481.019 379.181 481.476 378.907C481.689 378.785 481.872 378.663 482.085 378.541C482.603 378.176 483.029 377.689 483.394 377.141C483.486 376.988 483.608 376.866 483.699 376.684C483.821 376.44 483.943 376.197 484.034 375.953C484.339 375.222 484.521 374.461 484.704 373.73C484.765 373.425 484.856 373.151 484.948 372.847C485.008 372.664 485.039 372.481 485.1 372.329C485.465 371.202 486.775 368.584 488.328 368.949C488.541 369.01 488.724 369.101 488.937 369.162C489.15 369.223 489.394 369.223 489.546 369.101C489.698 368.979 489.728 368.736 489.668 368.523C489.607 368.309 489.454 368.157 489.272 368.035C488.845 367.731 488.236 367.639 487.719 367.792C486.896 368.066 486.287 368.096 485.587 368.705C484.887 369.345 484.399 370.197 484.034 371.05C484.034 371.081 484.004 371.081 484.004 371.111C483.699 371.842 483.516 372.603 483.334 373.334C483.212 373.791 483.09 374.248 482.938 374.704C482.846 374.948 482.785 375.192 482.694 375.435C482.481 375.983 482.207 376.379 481.933 376.714C481.841 376.836 481.75 376.958 481.659 377.049C481.415 377.293 481.111 377.475 480.776 377.658C480.684 377.719 480.593 377.78 480.502 377.841C480.227 378.024 479.953 378.206 479.679 378.419C479.588 378.511 479.527 378.602 479.436 378.694C479.253 378.907 479.07 379.15 478.949 379.424C478.827 379.698 478.735 380.033 478.674 380.368C478.644 380.521 478.614 380.642 478.583 380.795C478.583 380.856 478.583 380.947 478.553 381.008C478.522 381.343 478.492 381.708 478.492 382.043C478.461 382.439 478.461 382.805 478.4 383.2C478.218 384.723 477.73 386.215 477 387.555C476.817 387.707 476.665 387.86 476.512 388.012C476.299 388.195 476.116 388.377 475.934 388.59L475.386 389.108C473.65 390.783 471.549 391.818 469.295 392.823C468.991 392.976 468.656 393.097 468.351 393.25L467.955 393.432L467.559 393.615C467.224 393.767 466.89 393.889 466.555 394.041C464.88 394.742 463.144 395.442 461.225 396.112C460.464 396.386 459.672 396.66 458.85 396.904C458.698 396.965 458.546 396.995 458.393 397.056C457.267 397.452 456.109 397.939 455.165 398.701C454.922 398.914 454.709 399.127 454.526 399.34C454.404 399.462 454.282 399.614 454.191 399.736C454.161 399.766 454.13 399.827 454.1 399.858C453.887 400.101 453.704 400.345 453.46 400.528C453.43 400.558 453.369 400.589 453.338 400.649C453.308 400.68 453.277 400.741 453.217 400.771C453.186 400.802 453.156 400.832 453.125 400.893C453.064 400.984 452.973 401.015 452.882 401.106C452.821 401.137 452.79 401.198 452.729 401.228C452.516 400.589 452.09 399.827 451.359 399.401C451.146 399.279 450.872 399.157 450.567 399.096C449.958 398.518 449.106 398.305 448.192 398.487C447.705 398.579 447.218 398.792 446.822 399.096C446.334 399.431 445.878 399.888 445.604 400.406C445.512 400.345 445.451 400.284 445.36 400.223C445.208 400.132 445.086 400.04 444.934 399.919C444.477 399.553 444.142 399.096 443.898 398.457C443.594 397.726 443.35 396.995 443.107 396.234C443.076 396.143 443.046 396.021 442.985 395.929C442.802 395.412 442.619 394.894 442.437 394.407C442.254 393.92 442.102 393.463 441.919 393.036C441.706 392.458 441.493 391.879 441.279 391.362C441.158 391.027 441.005 390.722 440.884 390.418C440.64 389.869 440.396 389.352 440.153 388.834C440.061 388.651 439.97 388.438 439.879 388.255C439.818 388.134 439.757 388.042 439.696 387.92C439.422 387.372 439.148 386.855 438.874 386.367C438.6 385.88 438.295 385.393 437.991 384.936C437.93 384.845 437.869 384.754 437.808 384.662C437.442 384.114 437.077 383.627 436.712 383.14C434.945 380.856 432.753 379.12 430.256 377.932C429.495 377.567 428.733 377.262 427.941 376.958C425.962 376.136 424.104 375.374 422.582 374.004C422.216 373.669 421.881 373.304 421.577 372.938C420.633 371.781 419.933 370.411 419.232 369.01C419.232 368.553 419.202 368.127 419.171 367.67C419.171 367.396 419.141 367.152 419.141 366.878C419.049 365.508 418.958 363.955 419.263 362.524C419.476 361.488 419.963 360.575 420.481 359.6L420.846 358.869C421.333 357.925 421.76 356.799 421.76 355.581L422.003 355.306L421.882 354.941C421.486 353.692 421.607 352.292 422.216 351.165C422.399 350.8 422.643 350.495 422.886 350.16C423.039 349.947 423.191 349.734 423.343 349.521C423.83 348.759 424.105 348.059 424.165 347.298L424.196 347.024C424.196 346.78 424.226 346.536 424.287 346.293C424.348 346.08 424.439 345.836 424.592 345.623C424.896 345.166 425.323 344.77 425.718 344.405L425.84 344.283C426.267 343.887 426.723 343.491 427.119 342.973C427.515 342.486 427.85 341.877 428.155 341.146C428.337 340.75 428.49 340.324 428.642 339.898C428.946 339.045 429.251 338.253 429.708 337.522C430.286 336.609 431.23 335.909 432.479 335.391C433.545 334.965 434.702 334.69 435.829 334.416L436.316 334.295C437.93 333.899 439.27 333.503 440.488 332.985C443.289 331.798 445.847 330.031 447.918 327.869C448.557 327.199 449.045 326.225 449.593 325.464C449.745 325.25 449.867 324.946 449.715 324.763C449.593 324.611 449.38 324.611 449.227 324.702C449.075 324.794 448.953 324.946 448.832 325.098C447.827 326.408 446.304 327.565 445.025 328.6C443.685 329.666 442.193 330.61 440.64 331.341C439.391 331.919 437.991 332.407 436.529 332.772L435.554 333.016C434.58 333.229 433.545 333.472 432.54 333.838C430.987 334.386 429.829 335.117 429.007 336.061C428.124 337.066 427.698 338.253 427.272 339.411L427.119 339.837C426.876 340.537 426.632 341.085 426.327 341.603C426.053 342.029 425.718 342.456 425.201 342.912L424.866 343.217C424.044 343.948 423.1 344.801 422.826 346.08C422.765 346.354 422.765 346.628 422.734 346.932C422.734 347.084 422.734 347.206 422.704 347.359C422.673 347.633 422.612 347.907 422.46 348.181C422.277 348.577 422.003 348.942 421.699 349.338C421.577 349.49 421.455 349.673 421.333 349.856C420.846 350.556 420.511 351.317 420.328 352.139C420.176 351.926 419.993 351.713 419.841 351.53L419.476 351.104C418.684 350.16 417.953 349.277 417.496 348.211C417.405 347.998 417.344 347.785 417.253 347.541C417.222 347.419 417.161 347.298 417.131 347.176L417.192 346.841L417.009 346.689C416.918 346.293 416.887 345.866 416.857 345.44C416.827 345.227 416.796 345.044 416.796 344.831C416.796 344.466 416.826 344.1 416.826 343.765C416.826 343.491 416.827 343.247 416.857 342.973C416.887 342.73 416.918 342.486 416.948 342.243C417.07 341.268 417.253 340.355 417.436 339.502C417.831 337.827 418.014 336.274 418.623 334.63C418.714 334.386 418.806 334.142 418.775 333.868C418.775 333.746 418.684 333.564 418.562 333.594C418.471 333.594 418.41 333.655 418.38 333.746C417.253 335.178 416.796 336.426 416.339 338.162C416.126 338.984 415.943 339.837 415.761 340.69C415.669 341.116 415.578 341.542 415.517 341.968C415.395 341.664 415.273 341.39 415.06 341.085C414.938 340.903 414.786 340.75 414.603 340.568C414.512 340.476 414.451 340.355 414.36 340.263C414.329 340.233 414.269 340.202 414.238 340.172C413.994 339.959 413.72 339.746 413.385 339.502C413.142 339.35 412.868 339.197 412.624 339.045C412.502 338.954 412.35 338.893 412.228 338.802C411.985 338.68 411.741 338.527 411.528 338.406C411.284 338.253 411.041 338.101 410.797 337.918C410.767 337.888 410.706 337.857 410.645 337.797C410.371 337.614 410.127 337.401 409.883 337.188C409.701 337.035 409.518 336.853 409.366 336.67C408.574 335.848 407.904 334.904 407.417 333.868C406.808 332.62 406.442 331.249 406.351 329.909C406.351 329.818 406.351 329.727 406.351 329.635C406.351 329.575 406.351 329.483 406.351 329.422C406.351 329.179 406.321 328.935 406.321 328.722C405.925 328.752 405.468 328.722 405.194 329.026C404.311 330.001 405.529 332.985 405.955 333.99C406.107 334.356 406.29 334.69 406.473 335.025C406.869 335.756 407.325 336.426 407.843 337.035C408.056 337.309 408.3 337.553 408.544 337.797C408.665 337.918 408.757 338.01 408.879 338.101C409.335 338.527 409.792 338.923 410.31 339.258C410.736 339.563 411.193 339.806 411.65 340.05L411.893 340.202L412.228 340.385C412.441 340.507 412.655 340.659 412.868 340.781C412.929 340.811 412.99 340.842 413.05 340.903C413.142 340.964 413.203 341.025 413.264 341.085C413.446 341.238 413.599 341.359 413.751 341.512C414.025 341.816 414.177 342.182 414.329 342.578C414.39 342.73 414.451 342.882 414.482 343.065C414.512 343.247 414.543 343.43 414.573 343.643C414.604 343.826 414.634 344.009 414.664 344.191C414.695 344.374 414.725 344.557 414.756 344.74C414.786 344.892 414.786 345.014 414.817 345.166C414.817 345.227 414.847 345.288 414.847 345.349C414.938 345.775 415.06 346.262 415.304 346.749C415.395 346.932 415.517 347.084 415.639 347.267C415.7 347.328 415.761 347.419 415.852 347.48C416.096 348.394 416.492 349.216 416.948 349.977C417.04 350.13 417.101 350.282 417.222 350.434C417.588 350.952 417.984 351.409 418.38 351.896C418.867 352.474 419.324 353.023 419.719 353.632C419.841 353.845 419.933 354.058 420.024 354.271C420.328 354.971 420.42 355.702 420.298 356.433C420.268 356.646 420.237 356.89 420.146 357.103C419.902 357.773 419.567 358.413 419.202 359.082C418.928 359.6 418.654 360.118 418.44 360.636C417.679 362.371 417.618 364.168 417.71 365.965C417.405 365.447 417.131 364.99 416.826 364.533C416.492 364.046 416.157 363.589 415.822 363.194C415.121 362.371 414.238 361.549 413.264 360.818C413.233 360.788 413.172 360.757 413.111 360.727C412.198 360.057 410.949 359.539 410.34 358.656C409.975 358.169 409.792 357.834 409.244 357.469C408.757 357.134 408.239 356.86 407.935 356.342C407.721 355.946 407.691 355.489 407.447 355.093C407.204 354.697 406.808 354.423 406.473 354.088C405.955 353.54 405.62 352.84 405.194 352.231C404.646 351.409 403.793 350.83 403.275 350.008C402.879 349.338 402.666 348.516 402.24 347.876C401.844 347.298 401.387 347.054 401.326 346.293C401.296 346.049 401.326 345.745 401.113 345.562C400.87 345.379 400.474 345.562 400.322 345.836C399.743 346.902 400.626 348.15 401.174 348.972C401.996 350.221 402.697 351.47 403.671 352.596C404.128 353.144 404.615 353.662 405.102 354.21C405.803 355.002 406.564 355.794 407.204 356.646C407.478 356.981 407.691 357.286 407.904 357.59L407.752 357.499C407.569 357.408 407.386 357.316 407.173 357.225L405.986 356.646C402.392 354.88 398.677 353.266 396.119 350.038C395.876 350.343 395.876 350.769 396.028 351.135C396.85 353.144 399.652 354.758 401.448 355.794C401.661 355.915 401.844 356.037 402.057 356.129C402.545 356.403 403.062 356.677 403.58 356.92C403.915 357.103 404.25 357.286 404.585 357.469L405.742 358.047C406.26 358.291 406.808 358.687 407.356 358.808C407.752 358.9 407.965 358.839 408.361 359.052C409.305 359.509 410.218 360.179 411.071 360.788C412.807 362.036 414.451 363.498 415.669 365.295C416.461 366.452 417.07 367.761 417.679 369.04L417.71 369.132L417.831 369.406V369.588C417.831 370.898 417.649 372.207 417.405 373.547C417.344 373.852 417.314 374.156 417.253 374.491C417.192 374.857 417.131 375.222 417.07 375.587C416.887 376.623 416.735 377.658 416.674 378.694C416.644 379.181 416.644 379.851 416.705 380.612C416.887 382.531 417.527 385.028 419.719 386.367C420.328 386.733 420.968 386.946 421.638 386.976C421.912 386.976 422.156 386.976 422.399 386.916C422.886 386.824 423.343 386.672 423.739 386.489C423.8 386.459 423.891 386.428 423.952 386.398C424.074 386.337 424.226 386.276 424.379 386.215C425.566 385.698 426.845 385.18 428.216 384.845C428.368 384.814 428.52 384.753 428.672 384.723C429.434 384.54 430.225 384.419 431.017 384.327C431.139 384.327 431.23 384.297 431.352 384.297C431.87 384.236 432.387 384.205 432.905 384.236C433.027 384.236 433.179 384.236 433.301 384.236C433.971 384.297 434.458 384.54 434.854 385.088C435.219 385.545 435.524 386.033 435.859 386.52L436.163 386.976C436.498 387.494 436.864 388.073 437.229 388.651C437.534 389.139 437.808 389.656 438.082 390.174C438.265 390.509 438.447 390.874 438.6 391.24C438.721 391.514 438.843 391.818 438.965 392.123C439.239 392.854 439.513 393.615 439.757 394.346C439.909 394.833 440.092 395.32 440.244 395.808C441.005 397.97 442.315 400.954 445.025 402.416C445.025 403.147 445.147 403.908 445.421 404.76C445.36 404.882 445.329 405.004 445.269 405.156C445.177 405.369 445.055 405.583 444.995 405.796C444.964 405.979 444.934 406.131 444.903 406.283C444.903 406.344 444.903 406.405 444.903 406.466C444.903 406.618 444.903 406.77 444.903 406.923C444.903 406.953 444.873 406.983 444.873 407.014C444.842 407.075 444.842 407.136 444.812 407.197C444.781 407.379 444.751 407.562 444.72 407.745C444.72 407.775 444.72 407.775 444.72 407.806C444.72 407.958 444.69 408.141 444.69 408.293C444.69 408.354 444.69 408.384 444.69 408.445C444.69 408.476 444.69 408.506 444.69 408.506L444.416 409.206L444.233 409.633C444.111 409.694 443.99 409.755 443.868 409.815C443.594 409.968 443.259 410.09 442.954 410.211C442.893 410.242 442.832 410.242 442.802 410.272C442.558 410.364 442.284 410.455 442.071 410.577C441.767 410.729 441.493 410.881 441.219 411.094C440.884 411.338 440.579 411.643 440.274 411.978C440.214 412.038 440.153 412.099 440.122 412.16C439.879 412.404 439.665 412.678 439.544 412.922C439.513 412.952 439.483 412.982 439.452 413.013C439.391 413.074 439.33 413.104 439.27 413.165C439.239 413.196 439.178 413.226 439.148 413.257C439.087 413.287 439.026 413.317 438.965 413.348C438.935 413.378 438.874 413.378 438.843 413.409C438.782 413.439 438.691 413.439 438.63 413.439C438.569 413.439 438.539 413.47 438.478 413.47C438.386 413.47 438.326 413.47 438.234 413.47C438.173 413.47 438.143 413.47 438.082 413.47C437.991 413.47 437.899 413.439 437.808 413.409C437.747 413.409 437.717 413.378 437.656 413.378C437.564 413.348 437.473 413.317 437.382 413.287C437.321 413.257 437.26 413.257 437.199 413.226C437.107 413.196 437.016 413.165 436.925 413.135C436.833 413.104 436.773 413.074 436.651 413.013C436.468 412.952 436.316 412.861 436.133 412.8C435.554 412.556 434.945 412.282 434.306 412.13L434.489 411.978L434.154 412.069L433.788 411.947C433.362 411.795 432.936 411.825 432.54 412.008C432.327 412.038 432.113 412.099 431.9 412.16C431.687 412.221 431.504 412.343 431.322 412.465C431.2 412.526 431.108 412.617 431.048 412.739C430.987 412.861 430.926 412.982 430.926 413.104C430.834 413.104 430.773 413.074 430.652 413.013C430.591 412.982 430.56 412.952 430.499 412.922C430.469 412.891 430.408 412.861 430.378 412.861C430.164 412.678 429.829 412.465 429.312 412.434C428.855 412.404 428.429 412.526 427.972 412.678C427.272 412.922 426.571 413.287 425.962 413.622C425.597 413.835 425.262 414.048 424.896 414.261C424.805 414.322 424.683 414.383 424.592 414.444C423.891 414.871 423.252 415.297 422.551 415.632C421.912 415.936 421.212 416.18 420.481 416.363C420.085 416.484 419.659 416.576 419.232 416.698C418.105 416.972 416.948 417.246 415.882 417.763C415.639 417.885 415.365 418.007 415.121 418.129C414.878 418.281 414.634 418.433 414.39 418.616C412.746 419.804 411.65 421.509 410.553 423.184L410.371 423.458C409.274 425.133 407.995 426.869 406.381 427.843C404.92 428.726 403.306 428.483 401.783 429.244C401.722 429.274 401.692 429.305 401.661 429.366C401.601 429.487 401.722 429.579 401.844 429.64C402.758 430.188 403.641 430.584 404.646 430.157C405.498 429.792 406.412 429.518 407.234 429.061C408.909 428.117 410.036 426.625 411.162 425.102L411.589 424.463C413.233 422.027 414.756 419.743 417.588 418.86C418.227 418.647 418.897 418.494 419.567 418.342C419.872 418.281 420.176 418.19 420.45 418.129C421.059 417.977 421.699 417.794 422.308 417.581C422.491 417.52 422.643 417.428 422.826 417.337C423.709 416.941 424.561 416.454 425.353 415.936C425.779 415.662 426.236 415.388 426.693 415.145C426.876 415.053 427.058 414.931 427.272 414.84C427.546 414.688 427.82 414.566 428.094 414.444C428.368 414.322 428.672 414.231 428.946 414.17C429.129 414.14 429.22 414.201 429.434 414.322C429.494 414.353 429.525 414.383 429.616 414.444C429.921 414.657 430.317 414.901 430.865 414.931C431.626 414.962 432.144 414.475 432.57 414.079C432.661 413.987 432.753 413.927 432.844 413.835C433.118 413.805 433.423 413.835 433.697 413.926C434.093 414.048 434.489 414.201 434.885 414.414C435.037 414.505 435.189 414.566 435.341 414.657C435.433 414.688 435.494 414.718 435.585 414.779C435.889 414.931 436.194 415.114 436.498 415.236C436.742 415.327 436.986 415.388 437.199 415.48C437.625 415.601 438.021 415.693 438.417 415.693C438.356 415.845 438.326 416.028 438.295 416.21C438.234 416.484 438.143 416.789 438.082 417.063C438.051 417.185 438.021 417.307 437.991 417.428C437.625 418.799 437.229 420.2 436.316 421.174C436.103 421.418 435.829 421.6 435.554 421.783C434.945 422.179 434.245 422.423 433.514 422.697C433.057 422.849 432.601 423.032 432.174 423.214C430.53 423.945 429.129 424.981 428.337 426.594C428.185 426.869 428.033 427.173 427.82 427.417C427.454 427.843 426.906 428.117 426.541 428.574C426.48 428.665 426.419 428.757 426.419 428.878C426.449 429.031 426.602 429.152 426.784 429.152C426.937 429.152 427.089 429.061 427.241 428.97C429.373 427.63 430.56 425.437 432.966 424.493C433.21 424.402 433.453 424.311 433.727 424.219C433.819 424.189 433.91 424.158 434.001 424.128C434.489 423.976 435.006 423.762 435.494 423.549C435.829 423.397 436.163 423.245 436.498 423.032C436.559 423.001 436.62 422.94 436.681 422.879C438.173 421.783 438.874 420.078 439.391 418.372C439.483 418.068 439.574 417.763 439.665 417.428C439.879 416.637 440.122 415.815 440.427 415.114C440.457 415.084 440.457 415.084 440.488 415.053C440.67 414.901 440.853 414.749 441.005 414.566C441.188 414.353 441.34 414.14 441.493 413.866C441.675 413.592 441.828 413.317 442.041 413.135C442.102 413.074 442.132 413.043 442.102 413.074C442.467 412.861 442.893 412.708 443.35 412.526C443.685 412.404 444.02 412.282 444.325 412.13C444.355 412.13 444.355 412.13 444.386 412.099C444.416 412.069 444.446 412.069 444.507 412.038C444.781 411.886 445.055 411.734 445.299 411.551C445.573 411.399 445.817 411.216 446.03 411.034C446.091 411.003 446.152 410.942 446.182 410.912C446.334 410.79 446.456 410.638 446.578 410.485C446.73 410.272 446.883 410.059 446.974 409.846C447.004 409.815 447.004 409.785 447.004 409.724C447.065 409.572 447.126 409.389 447.157 409.237C447.157 409.176 447.157 409.115 447.187 409.054C447.218 408.902 447.248 408.75 447.248 408.597C447.644 409.176 448.04 409.572 448.497 409.876C448.436 409.998 448.436 410.12 448.375 410.211C448.283 410.546 448.192 410.851 448.192 411.186C448.192 411.216 448.192 411.247 448.192 411.247C448.162 412.556 448.74 413.926 449.258 415.175C449.41 415.571 449.593 415.967 449.745 416.332C450.05 417.093 450.232 417.824 450.232 418.494C450.232 418.829 450.171 419.164 450.05 419.469C449.989 419.591 449.897 419.743 449.806 419.865C449.745 419.956 449.684 420.017 449.623 420.108C449.532 420.23 449.41 420.352 449.319 420.504C449.045 420.9 448.801 421.357 448.832 421.935C448.862 422.91 449.562 423.549 450.08 424.006L450.293 424.219C451.389 425.255 451.176 426.381 450.354 427.782C450.08 428.239 449.745 428.757 449.349 429.274C448.984 429.792 448.618 430.31 448.344 430.766C446.456 434.055 446.7 437.923 447.126 441.607C447.187 442.125 447.248 442.643 447.309 443.16C447.583 445.444 447.857 447.789 447.583 449.982C447.461 450.987 447.218 451.961 446.791 452.875C446.517 453.484 446.06 454.032 445.573 454.641C445.238 455.067 444.873 455.493 444.568 455.981C444.172 456.62 443.868 457.321 443.807 458.173C443.807 458.386 443.807 458.6 443.807 458.813C443.959 460.335 444.69 461.584 445.39 462.832C445.939 463.776 446.456 464.69 446.7 465.664C446.761 465.878 446.913 466.06 447.096 466.182C447.187 466.243 447.278 466.273 447.4 466.273C447.492 466.273 447.583 466.273 447.705 466.243C447.796 466.213 447.887 466.182 447.979 466.121C448.009 466.091 448.04 466.03 448.101 465.999C448.131 465.969 448.162 465.938 448.192 465.878C448.253 465.786 448.253 465.725 448.283 465.604C448.283 465.543 448.283 465.482 448.283 465.421C448.283 465.36 448.283 465.329 448.283 465.269C447.979 464.05 447.4 462.985 446.852 461.949C446.578 461.462 446.334 460.975 446.091 460.488C445.969 460.183 445.817 459.909 445.725 459.604C445.36 458.539 445.451 457.625 446.03 456.803C446.274 456.468 446.517 456.163 446.791 455.859C447.065 455.554 447.309 455.219 447.583 454.854C447.735 454.671 447.857 454.458 447.979 454.245C449.562 451.443 449.501 448.185 449.227 445.322C449.197 444.896 449.136 444.5 449.106 444.104C449.562 444.713 450.08 445.322 450.659 445.84C451.45 446.601 452.333 447.241 453.217 447.85C454.008 448.429 454.861 449.007 455.5 449.708C456.17 450.408 456.597 451.169 456.779 451.961C456.84 452.235 456.871 452.509 456.871 452.753C456.871 452.875 456.871 452.996 456.84 453.118C456.779 453.484 456.658 453.849 456.414 454.275C456.353 454.397 456.262 454.519 456.201 454.641C456.17 454.702 456.11 454.793 456.079 454.854C456.018 454.945 455.988 455.037 455.927 455.128C455.835 455.28 455.744 455.433 455.683 455.585C455.531 455.859 455.47 456.133 455.348 456.407C455.287 456.559 455.196 456.742 455.165 456.894C454.952 457.716 454.891 458.63 455.013 459.513C455.044 459.787 455.135 460.031 455.196 460.274C455.348 460.883 455.561 461.492 455.896 462.041C456.323 462.802 456.932 463.441 457.602 463.959C457.632 463.99 457.693 464.02 457.754 464.05C458.637 464.659 459.642 464.842 460.616 464.325C460.738 464.264 460.86 464.142 460.799 464.05C459.825 463.776 458.881 463.228 458.15 462.558C457.328 461.827 456.719 460.822 456.475 459.665C456.414 459.33 456.384 458.965 456.353 458.6C456.353 458.234 456.384 457.899 456.445 457.564C456.505 457.199 456.627 456.864 456.779 456.559C456.84 456.437 456.901 456.346 456.962 456.224C457.054 456.042 457.175 455.859 457.267 455.646L457.389 455.433L457.48 455.311C457.723 454.884 457.998 454.397 458.15 453.849C458.302 453.331 458.333 452.814 458.272 452.266C458.15 451.291 457.723 450.286 457.023 449.373C456.17 448.246 455.013 447.454 453.917 446.693C453.308 446.266 452.76 445.871 452.242 445.414C451.45 444.744 450.72 443.922 450.08 443.069C449.593 442.369 449.136 441.668 448.74 440.907C448.74 440.876 448.74 440.876 448.71 440.846C448.436 438.258 448.222 435.273 449.349 432.654C449.532 432.198 449.806 431.802 450.08 431.375C450.293 431.04 450.537 430.736 450.78 430.401C451.176 429.883 451.572 429.366 451.907 428.818C452.242 428.269 452.547 427.66 452.699 426.99C452.912 426.199 453.034 425.041 452.455 423.976C452.303 423.702 452.09 423.458 451.846 423.214C451.724 423.093 451.633 423.001 451.511 422.879C451.146 422.514 450.628 422.027 450.72 421.783C450.78 421.661 450.933 421.479 451.085 421.296C451.237 421.113 451.389 420.93 451.542 420.717C451.633 420.595 451.664 420.443 451.724 420.321C451.846 420.047 451.938 419.773 451.999 419.469C452.029 419.316 452.09 419.164 452.09 419.012C452.181 418.129 451.998 417.276 451.785 416.515C451.785 416.484 451.755 416.454 451.755 416.454C451.694 416.241 451.603 416.028 451.542 415.815C451.42 415.48 451.268 415.114 451.115 414.718C451.055 414.536 450.963 414.353 450.902 414.17C450.902 414.14 450.902 414.14 450.872 414.109C450.872 414.079 450.841 414.048 450.841 414.018C450.293 412.708 449.867 411.308 450.445 410.333C450.476 410.303 450.476 410.272 450.476 410.242C450.659 410.211 450.841 410.181 451.054 410.15C451.329 410.09 451.633 410.029 451.907 409.968C452.608 409.815 453.43 409.633 454.374 409.602C454.465 409.602 454.556 409.602 454.648 409.602C454.8 409.602 454.952 409.602 455.105 409.633C455.166 409.694 455.257 409.724 455.348 409.785C455.561 409.907 455.744 410.059 455.988 410.15C456.079 410.211 456.17 410.242 456.292 410.272C456.505 410.364 456.749 410.485 456.993 410.577C457.114 410.638 457.267 410.668 457.419 410.699C457.632 410.76 457.876 410.851 458.119 410.912C458.272 410.942 458.485 410.973 458.637 411.003C458.85 411.064 459.094 411.094 459.337 411.125L459.398 411.155L459.886 411.338L459.977 411.368L460.099 411.216C460.586 411.277 461.073 411.308 461.591 411.338C462.078 411.369 462.535 411.399 463.022 411.429C464.179 411.49 465.276 411.551 466.25 411.703C467.224 411.856 468.169 412.16 469.052 412.556C470.27 413.074 471.396 413.805 472.432 414.718C472.645 414.901 472.858 415.084 473.071 415.266C473.65 415.845 474.228 416.484 474.777 417.093C475.721 418.129 476.695 419.225 477.822 420.169C478.035 420.352 478.218 420.535 478.461 420.687C478.614 420.809 478.796 420.9 478.949 421.022C481.111 422.544 483.455 423.702 485.77 424.828C486.47 425.163 487.171 425.498 487.84 425.833C488.541 426.168 489.241 426.534 489.911 426.929C489.972 426.96 490.003 426.99 490.063 427.021C492.226 428.239 493.779 429.457 494.966 430.858C495.91 431.954 496.58 433.172 497.341 434.482C497.676 435.091 498.042 435.73 498.438 436.339C498.681 436.705 498.895 437.07 499.169 437.435C502.701 442.308 507.604 445.779 512.354 449.129C512.689 449.373 513.146 449.312 513.42 449.007C513.451 448.977 513.481 448.977 513.481 448.946C513.481 448.703 513.481 448.672 513.511 448.642ZM432.509 382.652C432.205 382.652 431.931 382.683 431.626 382.713C430.926 382.774 430.225 382.865 429.525 382.987C429.434 383.018 429.312 383.018 429.22 383.018C428.429 383.17 427.637 383.353 426.845 383.596C426.053 383.84 425.231 384.144 424.47 384.479C424.318 384.54 424.165 384.632 424.013 384.693C423.983 384.693 423.952 384.723 423.922 384.723C423.374 384.997 422.826 385.241 422.277 385.332C421.059 385.545 420.146 384.723 419.659 384.175C419.537 384.023 419.445 383.901 419.384 383.81C418.714 382.835 418.288 381.556 418.197 380.094C418.105 378.359 418.38 376.653 418.684 374.857C418.714 374.735 418.715 374.613 418.745 374.491C418.897 373.578 419.08 372.664 419.171 371.72L419.324 372.025V371.933C419.506 372.238 419.689 372.542 419.902 372.847C420.785 374.126 421.821 375.192 423.039 375.983C423.891 376.531 424.774 376.988 425.688 377.384C426.114 377.567 426.541 377.75 426.937 377.932L427.454 378.145C428.581 378.602 429.769 379.089 430.834 379.698C431.108 379.851 431.352 380.033 431.596 380.186C432.448 380.734 433.24 381.343 434.001 382.074C434.306 382.378 434.61 382.683 434.885 383.018C434.154 382.683 433.301 382.622 432.509 382.652Z" fill="white"/>
<path d="M660.503 477.602C660.138 473.125 659.468 468.07 655.814 465.482C652.586 463.198 647.378 463.076 642.536 463.594C643.115 459.818 644.059 456.133 646.069 452.753C646.373 452.235 646.678 451.718 647.013 451.23C647.257 450.834 647.074 450.317 646.617 450.134C643.998 449.16 641.136 448.703 638.334 448.764C637.025 451.9 637.025 454.367 637.025 457.595C637.025 459.94 636.659 462.223 636.294 464.507C635.868 464.599 635.441 464.66 635.045 464.72C628.742 465.878 624.387 469.501 622.164 475.592C619.363 483.296 615.952 491.853 608.43 495.051C601.152 498.157 592.352 495.051 585.134 498.248C581.937 499.679 580.201 502.055 578.435 504.948C577.704 506.135 577.034 507.049 576.73 508.449C576.334 510.398 576.791 510.886 575.694 512.561C574.933 513.748 573.928 514.784 573.197 516.123C572.862 516.732 569.452 522.579 570.457 523.066C571.218 523.432 573.015 524.772 573.837 524.376C574.446 524.071 575.207 521.057 575.573 520.356C576.73 518.285 579.653 513.87 582.12 513.291C585.317 512.53 588.789 516.793 590.799 518.681C598.381 525.898 609.039 529.553 619.484 529.218C629.929 528.883 640.1 524.68 648.292 518.133C651.398 515.636 654.291 512.743 656.392 509.333C662.056 500.106 661.386 488.443 660.503 477.602Z" fill="white"/>
</g>
</svg>
